<svg width="47" height="36" viewBox="0 0 47 36" fill="none" xmlns="http://www.w3.org/2000/svg">
<path d="M45.7614 7.45143L31.8472 0.871796C30.4107 2.76728 27.2305 4.09002 23.5215 4.09002C19.8125 4.09002 16.6323 2.76728 15.1958 0.871796L1.28163 7.45143C0.717061 7.72416 0.488373 8.37872 0.767086 8.91736L4.85488 16.7243C5.14074 17.2629 5.8268 17.4811 6.39137 17.2152L10.4363 15.3265C11.1938 14.972 12.08 15.497 12.08 16.3084V33.5995C12.08 34.8064 13.1019 35.7814 14.3669 35.7814H32.6619C33.9268 35.7814 34.9487 34.8064 34.9487 33.5995V16.3016C34.9487 15.497 35.8349 14.9652 36.5924 15.3197L40.6373 17.2084C41.2019 17.4811 41.888 17.2629 42.1738 16.7175L46.2688 8.91736C46.5546 8.37872 46.3259 7.71735 45.7614 7.45143Z" fill="white"/>
</svg>
