<svg width="52" height="31" viewBox="0 0 52 31" fill="none" xmlns="http://www.w3.org/2000/svg">
<path d="M42.4149 11.7998C41.356 11.7998 40.2954 11.983 39.263 12.3442L39.0476 12.4195L35.5785 6.11664V3.37939H39.735C40.5338 3.37939 41.1836 2.72954 41.1836 1.93065C41.1836 1.13176 40.5339 0.481898 39.735 0.481898H34.2272C33.4285 0.481898 32.7785 1.13176 32.7785 1.93065C32.7785 2.04763 32.7945 2.16924 32.826 2.29205L32.8344 2.32507V5.09739H20.1964L19.1556 2.77982H22.1661C22.9225 2.77982 23.5377 2.16439 23.5377 1.4078C23.5377 0.651323 22.9225 0.0358887 22.1661 0.0358887H11.9053C11.1487 0.0358887 10.5333 0.651323 10.5333 1.4078C10.5333 2.16439 11.1487 2.77982 11.9053 2.77982H16.1487L17.0649 4.85696L12.9481 12.4213L12.7315 12.3454C11.7002 11.9838 10.6401 11.8006 9.58063 11.8006C4.2979 11.8006 0 16.0987 0 21.3816C0 26.6644 4.2979 30.9622 9.58063 30.9622C14.268 30.9622 18.236 27.6046 19.016 22.9787L19.0539 22.7536H23.1316L23.2098 22.8278C23.8331 23.4192 24.6488 23.7451 25.5066 23.7451C27.3472 23.7451 28.8446 22.2477 28.8446 20.4071C28.8446 20.0892 28.7991 19.7724 28.7092 19.4662L28.6776 19.3585L34.2063 9.31392L36.6448 13.7442L36.4665 13.8858C34.1582 15.7203 32.8344 18.4523 32.8344 21.3818C32.8344 26.6644 37.1322 30.9622 42.4149 30.9622C47.6977 30.9622 51.9956 26.6644 51.9956 21.3818C51.9956 16.0983 47.6977 11.7998 42.4149 11.7998ZM14.0116 16.1748L14.2651 16.4142C15.2041 17.3005 15.8709 18.4265 16.1932 19.6708L16.2807 20.0082H11.9018L14.0116 16.1748ZM16.1932 23.0912C15.4104 26.109 12.6913 28.2167 9.58084 28.2167C5.81097 28.2167 2.74404 25.1498 2.74404 21.3799C2.74404 17.61 5.81107 14.5432 9.58084 14.5432C10.1313 14.5432 10.7002 14.6173 11.2721 14.7633L11.6096 14.8496L8.37976 20.7205C8.37156 20.7419 8.36271 20.7632 8.35181 20.7841C8.32936 20.8305 8.31263 20.8708 8.29915 20.9097C8.28026 20.9597 8.26742 21.0002 8.25792 21.0389C8.24724 21.0792 8.23968 21.1177 8.23213 21.1677C8.22296 21.222 8.21853 21.2674 8.21799 21.3072L8.21745 21.3214C8.21616 21.3397 8.21378 21.358 8.21098 21.3765L8.21022 21.3825L8.21076 21.3869C8.21292 21.4025 8.21465 21.4177 8.21562 21.4329C8.21864 21.4873 8.22436 21.5388 8.23127 21.5897C8.23709 21.6268 8.24378 21.6684 8.25436 21.7099C8.2645 21.7507 8.27681 21.791 8.29256 21.8343C8.30864 21.8829 8.32418 21.9219 8.34263 21.961C8.35947 21.9986 8.37911 22.0323 8.40188 22.0714L8.40738 22.081C8.43058 22.1217 8.4513 22.1538 8.47332 22.1829C8.49803 22.2167 8.52501 22.2497 8.56116 22.2902C8.58954 22.3209 8.61879 22.3534 8.65116 22.383C8.68461 22.4132 8.72001 22.4414 8.75584 22.4696C8.79026 22.4954 8.82868 22.5239 8.86688 22.5458L8.88275 22.5558C8.89365 22.563 8.90444 22.5712 8.91534 22.5794L8.92526 22.5866C8.94706 22.5935 8.96843 22.6026 8.9898 22.6141C9.0266 22.632 9.06976 22.6502 9.10904 22.6637C9.15879 22.682 9.20098 22.6953 9.2448 22.7066C9.27901 22.7157 9.31462 22.7228 9.36555 22.7311C9.4194 22.7402 9.46937 22.7453 9.51955 22.7471C9.53422 22.7462 9.55689 22.7494 9.58052 22.7525L16.2806 22.7535L16.1932 23.0912ZM22.9363 18.2774C22.5761 18.7115 22.3308 19.234 22.2269 19.788L22.1856 20.008H19.0539L19.016 19.783C18.6235 17.4555 17.3853 15.3606 15.5291 13.8843L15.3509 13.7426L18.5002 8.02068L23.0436 18.1482L22.9363 18.2774ZM26.6905 17.2778L26.4812 17.2139C26.2388 17.1399 25.9854 17.0941 25.7281 17.0771L25.566 17.0665L21.4283 7.84014H31.8861L26.6905 17.2778ZM42.4149 28.2167C38.6452 28.2167 35.5782 25.1498 35.5782 21.3799C35.5782 19.4867 36.3425 17.723 37.7302 16.4139L37.9838 16.1747L41.2133 22.0417C41.4536 22.4799 41.9147 22.7517 42.4166 22.7517C42.6507 22.7517 42.8729 22.6946 43.0772 22.5818C43.3985 22.4053 43.6311 22.1144 43.7329 21.7624C43.8348 21.4101 43.7937 21.0388 43.6167 20.7169L40.3873 14.8494L40.7247 14.7631C41.2957 14.6169 41.8647 14.5429 42.4166 14.5429C46.1864 14.5429 49.2534 17.6098 49.2534 21.3796C49.2516 25.1498 46.1841 28.2167 42.4149 28.2167Z" fill="white"/>
</svg>
