<svg width="38" height="48" viewBox="0 0 38 48" fill="none" xmlns="http://www.w3.org/2000/svg">
<path d="M9.17314 8.96843C11.6011 8.96843 13.5694 7.00015 13.5694 4.57215C13.5694 2.14415 11.6011 0.175873 9.17314 0.175873C6.74514 0.175873 4.77686 2.14415 4.77686 4.57215C4.77686 7.00015 6.74514 8.96843 9.17314 8.96843Z" fill="white"/>
<path d="M36.8088 42.3153C31.5697 34.496 25.5791 24.3107 24.5721 22.5914C24.4809 22.2794 24.3605 21.9629 24.1945 21.6446C22.9979 19.3124 21.7465 17.0066 20.4696 14.7164C21.8231 14.8222 23.1803 14.9271 24.5329 15.032C25.4633 16.8653 26.389 18.6995 27.3175 20.5319C28.8125 23.4843 33.237 20.8867 31.7457 17.9424C30.5491 15.5774 29.1308 10.2581 26.0415 10.0182C22.7543 9.7628 19.4681 9.50742 16.1818 9.25294C16.1016 9.24656 16.0331 9.2575 15.9565 9.2575C13.472 8.59259 10.5597 10.3456 10.0325 12.8785C8.35243 16.5168 5.93995 19.358 1.89209 20.5437C-1.27652 21.4704 0.0733757 26.4203 3.25566 25.49C7.25701 24.3189 10.131 22.0259 12.31 19.0078C13.6298 21.361 14.9186 23.7287 16.1535 26.1294C13.4382 28.0019 11.0659 30.2666 8.98724 32.8798C8.40715 33.6085 8.30773 34.3583 8.50292 35.0177C8.49562 35.264 8.51113 35.5194 8.58136 35.7966C9.38127 38.9634 10.1803 42.1247 10.9811 45.2878C11.8302 48.6589 17.1669 47.7012 16.3104 44.3083C15.5488 41.2938 14.7863 38.2793 14.0247 35.2631C15.9346 33.0111 18.1866 31.0519 20.7596 29.5889C21.3652 29.2442 21.7465 28.769 21.9581 28.2454C25.4778 33.6395 28.9985 41.1023 32.5165 45.6253C34.6635 48.3853 38.9586 45.0808 36.8088 42.3153Z" fill="white"/>
</svg>
