<svg width="53" height="23" viewBox="0 0 53 23" fill="none" xmlns="http://www.w3.org/2000/svg">
<path d="M52.2468 14.9045L51.3885 12.9029C51.3772 12.8749 51.3553 12.854 51.3414 12.8287C51.2662 12.6434 51.1744 12.4537 51.0407 12.2597C49.7672 10.411 46.2359 9.51514 40.545 9.59554L39.5625 15.9832C38.983 16.019 38.3904 16.0522 37.7786 16.0802L38.8397 9.18649L35.7359 7.72597L33.1391 12.0535C32.9756 12.327 32.6863 12.4774 32.3891 12.4774C32.2361 12.4774 32.0805 12.4381 31.9398 12.3533C31.5264 12.105 31.3918 11.5675 31.64 11.154L34.146 6.97774L32.1915 6.05822L29.6428 10.3053C29.4793 10.5789 29.19 10.7293 28.8928 10.7293C28.7398 10.7293 28.5842 10.6899 28.4435 10.6051C28.0301 10.3569 27.8955 9.81933 28.1437 9.4059L30.6016 5.30999L28.6471 4.38963L26.1464 8.55719C25.9829 8.83076 25.6936 8.98113 25.3964 8.98113C25.2434 8.98113 25.0878 8.94177 24.9471 8.857C24.5337 8.60874 24.3991 8.07118 24.6473 7.65776L27.0572 3.64141L25.1027 2.72188L22.6501 6.80904C22.4866 7.08261 22.1973 7.23298 21.9001 7.23298C21.7471 7.23298 21.5915 7.19362 21.4509 7.10885C21.0374 6.86059 20.9028 6.32304 21.151 5.90961L23.5128 1.97366L21.1825 0.87668C20.783 0.68965 20.3067 0.828568 20.0707 1.20179C19.9606 1.37664 18.6765 3.35108 16.2851 4.81347C16.9739 6.26878 17.6941 7.6865 17.9695 7.97933C18.84 8.79566 19.2797 10.0168 19.1695 11.3226C19.0402 12.8566 18.8532 14.4561 18.6337 16.0758C16.1785 15.9962 13.7285 15.8939 11.3405 15.7751C11.0861 14.3836 10.9 12.8251 10.789 11.112C10.7025 9.77819 9.7969 7.6638 8.78563 6.20755C7.21493 5.93138 5.48866 5.3178 3.60503 4.22083C3.53776 4.18146 3.45997 4.17625 3.38655 4.15616C3.35687 4.14741 3.33323 4.12908 3.30178 4.12377C2.56054 3.99787 1.83335 2.94119 1.83335 1.98844C1.83335 1.50598 1.44263 1.11442 0.95933 1.11442C0.47676 1.11442 0.0852051 1.50598 0.0852051 1.98844C0.0852051 3.33368 0.89893 4.87991 2.16898 5.54503C1.43648 9.43641 0.337841 15.1065 0.130609 15.7279C0.118425 15.7647 0.127068 15.8031 0.119258 15.8416C0.108844 15.8958 0.0852051 15.9474 0.0852051 16.0041V21.2179C0.0852051 21.6934 0.465409 22.0815 0.940064 22.092C1.15157 22.0963 22.1755 22.5579 35.6711 22.966C36.1815 22.9817 36.6762 22.9887 37.1578 22.9887C44.6476 22.9887 48.7732 21.1925 50.9436 19.6305C52.3614 18.6107 52.9041 16.6841 52.2468 14.9045ZM30.6775 13.3513C31.1609 13.3513 31.5515 13.7429 31.5515 14.2254C31.5515 14.7088 31.1608 15.0994 30.6775 15.0994C30.195 15.0994 29.8035 14.7087 29.8035 14.2254C29.8035 13.7429 30.195 13.3513 30.6775 13.3513ZM27.1813 12.4773C27.6647 12.4773 28.0553 12.8689 28.0553 13.3513C28.0553 13.8347 27.6646 14.2254 27.1813 14.2254C26.6988 14.2254 26.3073 13.8346 26.3073 13.3513C26.3072 12.8689 26.6988 12.4773 27.1813 12.4773ZM23.685 11.6032C24.1684 11.6032 24.559 11.9947 24.559 12.4772C24.559 12.9606 24.1683 13.3512 23.685 13.3512C23.2025 13.3512 22.811 12.9605 22.811 12.4772C22.8109 11.9948 23.2025 11.6032 23.685 11.6032ZM49.9227 18.212C47.8319 19.7163 43.6644 21.4548 35.7244 21.2188C23.7732 20.8578 5.92478 20.454 1.83335 20.3631V16.9455C5.74921 17.2296 17.4127 18.0023 28.4731 18.0268H28.5159C28.6776 18.0268 28.8394 18.0276 29.0002 18.0276C29.3262 18.0276 29.6495 18.025 29.9738 18.0232C30.181 18.0224 30.389 18.0224 30.5953 18.0206C31.0219 18.018 31.4449 18.0127 31.867 18.0067C32.0891 18.0041 32.3119 18.0015 32.5322 17.9979C32.9334 17.9909 33.3293 17.9822 33.7261 17.9726C33.9621 17.9674 34.199 17.9621 34.4332 17.9561C34.8125 17.9455 35.1848 17.9324 35.5572 17.9193C35.8002 17.9105 36.045 17.9027 36.2854 17.8931C36.6446 17.8791 36.9978 17.8616 37.3499 17.8449C37.5929 17.8328 37.8377 17.8222 38.0771 17.8091C38.4171 17.7899 38.7484 17.7689 39.0806 17.7479C39.3245 17.7322 39.57 17.7173 39.8096 17.7007C40.1251 17.678 40.4319 17.6526 40.7396 17.6273C40.9817 17.608 41.2256 17.5879 41.4624 17.567C41.7543 17.5399 42.0376 17.5111 42.3207 17.4813C42.5593 17.4568 42.798 17.4332 43.0296 17.4061C43.2979 17.3755 43.5558 17.3423 43.8154 17.3091C44.0452 17.2794 44.2752 17.2496 44.4972 17.2181C44.7428 17.1832 44.977 17.1447 45.213 17.1071C45.4307 17.0721 45.6483 17.0372 45.8572 16.9997C46.0792 16.9603 46.2907 16.9175 46.5022 16.8747C46.7041 16.8345 46.9061 16.7943 47.0983 16.7506C47.2967 16.706 47.4829 16.6588 47.6699 16.6115C47.8543 16.5644 48.0388 16.518 48.2127 16.4682C48.3857 16.4192 48.5465 16.3659 48.7083 16.3143C48.8718 16.261 49.0351 16.2085 49.1864 16.1526C49.335 16.0975 49.4704 16.0398 49.6059 15.9813C49.7466 15.9218 49.8865 15.8625 50.0124 15.8004C50.1347 15.7401 50.2431 15.6763 50.3524 15.6134C50.4293 15.568 50.5219 15.5269 50.5927 15.4805L50.6233 15.5513C50.9987 16.5705 50.7173 17.6395 49.9227 18.212Z" fill="white"/>
<path d="M13.129 15.8453C14.3334 15.9004 15.5912 15.9545 16.8883 16.0044C17.1155 14.3551 17.2965 12.7337 17.4276 11.1752C17.4923 10.4164 17.245 9.69539 16.7669 9.24698C16.3106 8.8196 15.4715 7.18414 14.7277 5.6048C13.6298 6.05758 12.3668 6.35823 10.9438 6.3827C11.8616 8.05045 12.463 9.9096 12.5338 10.9987C12.6508 12.8044 12.8501 14.431 13.129 15.8453Z" fill="white"/>
</svg>
