<svg width="45" height="42" viewBox="0 0 45 42" fill="none" xmlns="http://www.w3.org/2000/svg">
<path d="M16.0554 37.9665C16.399 38.3161 16.3788 38.8697 16.0095 39.1951L14.0141 40.9572C13.6448 41.2826 13.0614 41.2635 12.7179 40.913L1.09754 29.0854C0.753959 28.7357 0.775088 28.183 1.1444 27.8568L3.14251 26.0972C3.51182 25.771 4.09518 25.791 4.43876 26.1415L16.0554 37.9665ZM30.8828 15.7116C31.2264 16.0613 31.2053 16.6148 30.836 16.9402L18.2777 28.0199C17.9084 28.3453 17.325 28.3262 16.9814 27.9757L13.9838 24.9207C13.6402 24.5711 13.6613 24.0175 14.0307 23.6921L26.5862 12.6124C26.9546 12.2871 27.5379 12.3061 27.8815 12.6567L30.8828 15.7116ZM20.3282 34.1949C20.6718 34.5445 20.6506 35.0972 20.2813 35.4234L18.2832 37.1847C17.9139 37.511 17.3305 37.491 16.9869 37.1405L5.37306 25.3129C5.02947 24.9632 5.04968 24.4097 5.41899 24.0843L7.41343 22.3239C7.78274 21.9985 8.3661 22.0176 8.70968 22.3681L20.3282 34.1949ZM39.6782 16.1359C40.0218 16.4856 40.0007 17.0391 39.6304 17.3645L37.6333 19.1258C37.2639 19.4511 36.6806 19.432 36.3361 19.0824L24.7204 7.25737C24.3758 6.90772 24.397 6.35503 24.7663 6.0288L26.769 4.26316C27.1374 3.9378 27.7207 3.95689 28.0643 4.30741L39.6782 16.1359ZM43.9445 12.3704C44.2881 12.72 44.267 13.2736 43.8977 13.5998L41.9042 15.3602C41.5358 15.6865 40.9524 15.6665 40.6088 15.3168L28.9949 3.48663C28.6514 3.13697 28.6716 2.58342 29.0409 2.25719L31.0362 0.493284C31.4046 0.167053 31.9871 0.186141 32.3307 0.536665L43.9445 12.3704Z" fill="white"/>
</svg>
