<svg width="387" height="37" viewBox="0 0 387 37" fill="none" xmlns="http://www.w3.org/2000/svg">
<path d="M0.1 36H9.7V16.8L24.65 36H33.15V0.999998H23.55V19.5L9.15 0.999998H0.1V36ZM39.3578 36H67.7578V27.75H48.9578V22.2H65.7578V14.55H48.9578V9.25H67.5078V0.999998H39.3578V36ZM82.0574 36.25H90.5074L97.5074 16.1L104.557 36.25H113.007L124.707 0.999998H114.657L108.557 21.25L101.807 0.899999H93.4574L86.7074 21.25L80.6074 0.999998H70.3574L82.0574 36.25ZM142.634 36H152.384V0.999998H142.634V36ZM158.791 36H168.391V16.8L183.341 36H191.841V0.999998H182.241V19.5L167.841 0.999998H158.791V36ZM225.666 36.6C234.166 36.6 239.816 32.35 239.816 25.2V25.1C239.816 18.55 234.816 15.95 226.766 14.2C221.916 13.1 220.716 12.4 220.716 10.8V10.7C220.716 9.45 221.866 8.45 224.216 8.45C227.316 8.45 230.816 9.65 234.016 11.9L238.866 5.05C235.066 2 230.416 0.399999 224.466 0.399999C216.066 0.399999 210.916 5.1 210.916 11.6V11.7C210.916 18.9 216.666 21 224.116 22.7C228.866 23.8 230.016 24.6 230.016 26.05V26.15C230.016 27.65 228.616 28.55 226.016 28.55C221.966 28.55 218.116 27.1 214.666 24.35L209.266 30.8C213.566 34.65 219.466 36.6 225.666 36.6ZM252.107 36H261.807V9.5H272.307V0.999998H241.607V9.5H252.107V36ZM292.651 36.7C303.451 36.7 311.551 28.55 311.551 18.5V18.4C311.551 8.35 303.551 0.299998 292.751 0.299998C281.951 0.299998 273.851 8.45 273.851 18.5V18.6C273.851 28.65 281.851 36.7 292.651 36.7ZM292.751 27.95C287.451 27.95 283.801 23.55 283.801 18.5V18.4C283.801 13.35 287.351 9.05 292.651 9.05C298.001 9.05 301.651 13.45 301.651 18.5V18.6C301.651 23.65 298.101 27.95 292.751 27.95ZM333.454 36.7C341.204 36.7 345.654 33.35 348.954 28.8L341.654 23.6C339.554 26.15 337.404 27.85 333.754 27.85C328.854 27.85 325.404 23.75 325.404 18.5V18.4C325.404 13.3 328.854 9.15 333.754 9.15C337.104 9.15 339.404 10.75 341.404 13.25L348.704 7.6C345.604 3.3 341.004 0.299998 333.854 0.299998C323.254 0.299998 315.404 8.3 315.404 18.5V18.6C315.404 29.05 323.454 36.7 333.454 36.7ZM353.127 36H362.827V26.95L366.377 23L375.177 36H386.827L373.127 16.05L386.377 0.999998H374.877L362.827 15.2V0.999998H353.127V36Z" fill="#ED612C"/>
</svg>
