<svg width="1003" height="208" viewBox="0 0 1003 208" fill="none" xmlns="http://www.w3.org/2000/svg">
<path d="M22.95 46.7C30.7 46.7 35.15 43.35 38.45 38.8L31.15 33.6C29.05 36.15 26.9 37.85 23.25 37.85C18.35 37.85 14.9 33.75 14.9 28.5V28.4C14.9 23.3 18.35 19.15 23.25 19.15C26.6 19.15 28.9 20.75 30.9 23.25L38.2 17.6C35.1 13.3 30.5 10.3 23.35 10.3C12.75 10.3 4.9 18.3 4.9 28.5V28.6C4.9 39.05 12.95 46.7 22.95 46.7ZM55.3852 46.65C64.0852 46.65 70.3852 40.2 70.3852 32.5V32.4C70.3852 24.7 64.1352 18.35 55.4852 18.35C46.7852 18.35 40.4852 24.8 40.4852 32.5V32.6C40.4852 40.3 46.7352 46.65 55.3852 46.65ZM55.4852 38.6C52.1352 38.6 49.7352 35.8 49.7352 32.5V32.4C49.7352 29.15 51.9352 26.4 55.3852 26.4C58.7352 26.4 61.1352 29.2 61.1352 32.5V32.6C61.1352 35.85 58.9352 38.6 55.4852 38.6ZM74.3977 46H83.8977V31.35C83.8977 28.4 85.5977 26.8 87.8977 26.8C90.1477 26.8 91.6977 28.4 91.6977 31.35V46H101.198V28.3C101.198 22.15 97.7477 18.35 91.9977 18.35C88.1477 18.35 85.6477 20.5 83.8977 22.75V18.95H74.3977V46ZM116.837 46.55C119.487 46.55 121.737 45.95 123.437 45V37.55C122.287 38.1 121.087 38.45 119.837 38.45C118.087 38.45 117.237 37.65 117.237 35.75V26.6H123.537V18.95H117.237V12.1H107.737V18.95H104.537V26.6H107.737V37.6C107.737 44.05 111.137 46.55 116.837 46.55ZM135.37 46.6C138.92 46.6 141.47 45.25 143.32 43.2V46H152.72V30.45C152.72 26.65 151.87 23.85 149.82 21.85C147.67 19.7 144.37 18.55 139.52 18.55C134.87 18.55 131.62 19.4 128.57 20.65L130.52 27.35C132.92 26.4 135.12 25.85 137.97 25.85C141.62 25.85 143.37 27.45 143.37 30.25V30.7C141.82 30.15 139.37 29.65 136.87 29.65C130.52 29.65 126.27 32.55 126.27 38.15V38.25C126.27 43.65 130.22 46.6 135.37 46.6ZM138.77 40.65C136.82 40.65 135.42 39.55 135.42 37.7V37.6C135.42 35.6 137.02 34.25 139.77 34.25C141.17 34.25 142.52 34.55 143.47 34.95V36.2C143.47 38.9 141.52 40.65 138.77 40.65ZM170.602 46.65C176.552 46.65 180.152 44.15 182.652 40.45L176.302 35.85C174.802 37.6 173.352 38.65 171.102 38.65C167.902 38.65 165.702 36 165.702 32.5V32.4C165.702 29.1 167.952 26.4 171.002 26.4C173.302 26.4 174.752 27.45 176.052 29.25L182.502 24.45C180.202 20.8 176.502 18.4 170.952 18.4C162.402 18.4 156.452 24.85 156.452 32.5V32.6C156.452 40.25 162.452 46.65 170.602 46.65ZM196.769 46.55C199.419 46.55 201.669 45.95 203.369 45V37.55C202.219 38.1 201.019 38.45 199.769 38.45C198.019 38.45 197.169 37.65 197.169 35.75V26.6H203.469V18.95H197.169V12.1H187.669V18.95H184.469V26.6H187.669V37.6C187.669 44.05 191.069 46.55 196.769 46.55ZM230.419 46.6C234.269 46.6 236.769 44.55 238.519 42.3V46H248.019V18.95H238.519V33.6C238.519 36.55 236.819 38.15 234.569 38.15C232.269 38.15 230.719 36.55 230.719 33.6V18.95H221.219V36.65C221.219 42.8 224.669 46.6 230.419 46.6ZM263.859 46.6C270.459 46.6 274.909 43.5 274.909 37.55V37.45C274.909 32.2 270.659 30.35 265.309 28.85C262.459 28 260.909 27.5 260.909 26.45V26.35C260.909 25.6 261.659 25.05 263.109 25.05C265.259 25.05 268.309 26 271.109 27.55L274.359 21.55C271.259 19.55 267.159 18.4 263.209 18.4C256.959 18.4 252.359 21.6 252.359 27.35V27.45C252.359 32.9 256.609 34.7 261.959 36.1C264.809 36.9 266.309 37.35 266.309 38.4V38.5C266.309 39.45 265.559 39.95 263.909 39.95C261.109 39.95 257.709 38.9 254.609 36.85L251.059 42.6C254.809 45.3 259.309 46.6 263.859 46.6Z" fill="white"/>
<path d="M683.1 46H692.6V26L701.5 39.6H701.7L710.65 25.9V46H720.3V11H710.05L701.7 24.55L693.35 11H683.1V46ZM726.508 46H754.908V37.75H736.108V32.2H752.908V24.55H736.108V19.25H754.658V11H726.508V46ZM759.858 46H769.458V26.8L784.408 46H792.908V11H783.308V29.5L768.908 11H759.858V46ZM814.866 46.65C824.816 46.65 831.266 41.7 831.266 30.4V11H821.416V30.7C821.416 35.6 818.866 37.9 814.966 37.9C811.066 37.9 808.516 35.5 808.516 30.45V11H798.666V30.65C798.666 41.6 804.916 46.65 814.866 46.65ZM850.873 46H877.523V37.5H860.573V11H850.873V46ZM881.884 46H891.634V11H881.884V46ZM898.041 46H907.641V26.8L922.591 46H931.091V11H921.491V29.5L907.091 11H898.041V46ZM937.299 46H946.999V36.95L950.549 33L959.349 46H970.999L957.299 26.05L970.549 11H959.049L946.999 25.2V11H937.299V46ZM987.084 46.6C995.584 46.6 1001.23 42.35 1001.23 35.2V35.1C1001.23 28.55 996.234 25.95 988.184 24.2C983.334 23.1 982.134 22.4 982.134 20.8V20.7C982.134 19.45 983.284 18.45 985.634 18.45C988.734 18.45 992.234 19.65 995.434 21.9L1000.28 15.05C996.484 12 991.834 10.4 985.884 10.4C977.484 10.4 972.334 15.1 972.334 21.6V21.7C972.334 28.9 978.084 31 985.534 32.7C990.284 33.8 991.434 34.6 991.434 36.05V36.15C991.434 37.65 990.034 38.55 987.434 38.55C983.384 38.55 979.534 37.1 976.084 34.35L970.684 40.8C974.984 44.65 980.884 46.6 987.084 46.6Z" fill="#F7F7F7"/>
<path d="M24 84C16.27 84 10 90.27 10 98C10 108.5 24 124 24 124C24 124 38 108.5 38 98C38 90.27 31.73 84 24 84ZM24 103C21.24 103 19 100.76 19 98C19 95.24 21.24 93 24 93C26.76 93 29 95.24 29 98C29 100.76 26.76 103 24 103Z" fill="white"/>
<path d="M54.8672 120V90.1953H58.6562V116.758H72.6016V120H54.8672ZM77.5234 109.258C77.5234 111.888 78.1094 113.945 79.2812 115.43C80.4531 116.888 81.8854 117.617 83.5781 117.617C85.2448 117.617 86.6641 116.888 87.8359 115.43C89.0078 113.945 89.5938 111.888 89.5938 109.258C89.5938 106.576 89.0078 104.505 87.8359 103.047C86.6641 101.589 85.2448 100.859 83.5781 100.859C81.9115 100.859 80.4792 101.589 79.2812 103.047C78.1094 104.479 77.5234 106.549 77.5234 109.258ZM73.7734 109.258C73.7734 106.003 74.6198 103.281 76.3125 101.094C78.0052 98.8802 80.4271 97.7734 83.5781 97.7734C86.6771 97.7734 89.0729 98.8802 90.7656 101.094C92.4844 103.281 93.3438 106.003 93.3438 109.258C93.3438 110.612 93.1615 111.927 92.7969 113.203C92.4583 114.479 91.9245 115.703 91.1953 116.875C90.4922 118.021 89.4766 118.945 88.1484 119.648C86.8203 120.352 85.2969 120.703 83.5781 120.703C81.8594 120.703 80.3359 120.365 79.0078 119.688C77.7057 118.984 76.6771 118.06 75.9219 116.914C75.1927 115.768 74.6458 114.557 74.2812 113.281C73.9427 111.979 73.7734 110.638 73.7734 109.258ZM96.5078 109.258C96.5078 105.82 97.3932 103.047 99.1641 100.938C100.935 98.8281 103.292 97.7734 106.234 97.7734C108.24 97.7734 109.932 98.3594 111.312 99.5312C112.719 100.703 113.643 102.07 114.086 103.633L110.961 104.531C110.596 103.516 109.997 102.656 109.164 101.953C108.331 101.224 107.367 100.859 106.273 100.859C104.424 100.859 102.953 101.654 101.859 103.242C100.792 104.831 100.258 106.836 100.258 109.258C100.258 111.836 100.818 113.88 101.938 115.391C103.083 116.875 104.529 117.617 106.273 117.617C107.471 117.617 108.539 117.227 109.477 116.445C110.44 115.638 111.117 114.714 111.508 113.672L114.633 114.609C114.112 116.25 113.083 117.682 111.547 118.906C110.036 120.104 108.266 120.703 106.234 120.703C103.344 120.703 101 119.674 99.2031 117.617C97.4062 115.534 96.5078 112.747 96.5078 109.258ZM120.727 114.297C120.727 115.234 121.117 116.029 121.898 116.68C122.68 117.331 123.734 117.656 125.062 117.656C126.833 117.656 128.331 117.083 129.555 115.938C130.805 114.792 131.43 113.32 131.43 111.523V108.867C130.388 109.128 128.695 109.44 126.352 109.805C122.602 110.43 120.727 111.927 120.727 114.297ZM117.055 114.609C117.055 110.573 120.115 108.086 126.234 107.148C128.891 106.732 130.622 106.393 131.43 106.133V104.922C131.43 103.672 130.987 102.656 130.102 101.875C129.242 101.094 128.018 100.703 126.43 100.703C125.18 100.703 123.969 101.003 122.797 101.602C121.651 102.174 120.688 102.943 119.906 103.906L117.602 101.953C118.669 100.677 119.971 99.6615 121.508 98.9062C123.044 98.151 124.659 97.7734 126.352 97.7734C132.159 97.7734 135.062 100.638 135.062 106.367V120H131.547V116.758C131.104 117.826 130.258 118.75 129.008 119.531C127.758 120.312 126.286 120.703 124.594 120.703C122.224 120.703 120.375 120.143 119.047 119.023C117.719 117.878 117.055 116.406 117.055 114.609ZM138.539 101.562V98.4766H142.172V91.7578H145.844V98.4766H151.234V101.562H145.844V113.477C145.844 114.701 146.078 115.573 146.547 116.094C147.016 116.615 147.758 116.875 148.773 116.875H151.273V120H148.305C144.216 120 142.172 117.93 142.172 113.789V101.562H138.539ZM155.727 94.2188V89.7656H160.062V94.2188H155.727ZM156.117 120V98.4766H159.711V120H156.117ZM168.695 109.258C168.695 111.888 169.281 113.945 170.453 115.43C171.625 116.888 173.057 117.617 174.75 117.617C176.417 117.617 177.836 116.888 179.008 115.43C180.18 113.945 180.766 111.888 180.766 109.258C180.766 106.576 180.18 104.505 179.008 103.047C177.836 101.589 176.417 100.859 174.75 100.859C173.083 100.859 171.651 101.589 170.453 103.047C169.281 104.479 168.695 106.549 168.695 109.258ZM164.945 109.258C164.945 106.003 165.792 103.281 167.484 101.094C169.177 98.8802 171.599 97.7734 174.75 97.7734C177.849 97.7734 180.245 98.8802 181.938 101.094C183.656 103.281 184.516 106.003 184.516 109.258C184.516 110.612 184.333 111.927 183.969 113.203C183.63 114.479 183.096 115.703 182.367 116.875C181.664 118.021 180.648 118.945 179.32 119.648C177.992 120.352 176.469 120.703 174.75 120.703C173.031 120.703 171.508 120.365 170.18 119.688C168.878 118.984 167.849 118.06 167.094 116.914C166.365 115.768 165.818 114.557 165.453 113.281C165.115 111.979 164.945 110.638 164.945 109.258ZM189.047 120V98.4766H192.641V101.836H192.68C193.018 100.872 193.76 99.9609 194.906 99.1016C196.078 98.2161 197.51 97.7734 199.203 97.7734C201.26 97.7734 202.927 98.4115 204.203 99.6875C205.505 100.964 206.156 103.099 206.156 106.094V120H202.445V106.68C202.445 102.799 201.091 100.859 198.383 100.859C196.846 100.859 195.518 101.497 194.398 102.773C193.305 104.023 192.758 105.534 192.758 107.305V120H189.047Z" fill="white"/>
<path d="M683.867 122V92.1953H687.656V105.086H701.406V92.1953H705.195V122H701.406V108.25H687.656V122H683.867ZM714.375 111.258C714.375 113.888 714.961 115.945 716.133 117.43C717.305 118.888 718.737 119.617 720.43 119.617C722.096 119.617 723.516 118.888 724.688 117.43C725.859 115.945 726.445 113.888 726.445 111.258C726.445 108.576 725.859 106.505 724.688 105.047C723.516 103.589 722.096 102.859 720.43 102.859C718.763 102.859 717.331 103.589 716.133 105.047C714.961 106.479 714.375 108.549 714.375 111.258ZM710.625 111.258C710.625 108.003 711.471 105.281 713.164 103.094C714.857 100.88 717.279 99.7734 720.43 99.7734C723.529 99.7734 725.924 100.88 727.617 103.094C729.336 105.281 730.195 108.003 730.195 111.258C730.195 112.612 730.013 113.927 729.648 115.203C729.31 116.479 728.776 117.703 728.047 118.875C727.344 120.021 726.328 120.945 725 121.648C723.672 122.352 722.148 122.703 720.43 122.703C718.711 122.703 717.188 122.365 715.859 121.688C714.557 120.984 713.529 120.06 712.773 118.914C712.044 117.768 711.497 116.557 711.133 115.281C710.794 113.979 710.625 112.638 710.625 111.258ZM734.727 122V100.477H738.32V103.445C738.711 102.56 739.414 101.727 740.43 100.945C741.445 100.164 742.708 99.7734 744.219 99.7734C746.745 99.7734 748.542 101.258 749.609 104.227C749.766 103.862 749.987 103.484 750.273 103.094C750.56 102.677 750.964 102.195 751.484 101.648C752.005 101.102 752.695 100.659 753.555 100.32C754.44 99.9557 755.391 99.7734 756.406 99.7734C760.651 99.7734 762.773 102.547 762.773 108.094V122H759.102V108.328C759.102 106.531 758.854 105.177 758.359 104.266C757.865 103.328 756.94 102.859 755.586 102.859C754.154 102.859 752.956 103.471 751.992 104.695C751.029 105.893 750.547 107.404 750.547 109.227V122H746.953V108.25C746.953 104.656 745.768 102.859 743.398 102.859C741.862 102.859 740.651 103.432 739.766 104.578C738.88 105.724 738.438 107.221 738.438 109.07V122H734.727ZM767.109 111.102C767.109 107.716 768.034 104.982 769.883 102.898C771.732 100.815 774.102 99.7734 776.992 99.7734C779.883 99.7734 782.188 100.802 783.906 102.859C785.651 104.917 786.523 107.547 786.523 110.75C786.523 111.167 786.497 111.74 786.445 112.469H770.82C770.82 114.448 771.38 116.154 772.5 117.586C773.646 118.992 775.208 119.695 777.188 119.695C779.844 119.695 781.784 118.549 783.008 116.258L786.094 117.234C785.417 118.823 784.31 120.138 782.773 121.18C781.263 122.195 779.388 122.703 777.148 122.703C774.154 122.703 771.732 121.648 769.883 119.539C768.034 117.404 767.109 114.591 767.109 111.102ZM770.898 109.773H782.812C782.812 107.82 782.292 106.167 781.25 104.812C780.208 103.458 778.789 102.781 776.992 102.781C775.169 102.781 773.711 103.484 772.617 104.891C771.523 106.271 770.951 107.898 770.898 109.773Z" fill="white"/>
<path d="M55.4062 187.141L58.8438 185.93C59.625 187.31 60.6927 188.404 62.0469 189.211C63.4271 190.018 65.0156 190.422 66.8125 190.422C68.7396 190.422 70.3021 189.953 71.5 189.016C72.6979 188.078 73.2969 186.815 73.2969 185.227C73.2969 184.393 73.1146 183.664 72.75 183.039C72.4115 182.388 71.8646 181.828 71.1094 181.359C70.3542 180.891 69.638 180.513 68.9609 180.227C68.3099 179.94 67.4245 179.615 66.3047 179.25C63.2057 178.234 61.0833 177.362 59.9375 176.633C57.5938 175.122 56.4219 173.052 56.4219 170.422C56.4219 168.026 57.3464 166.112 59.1953 164.68C61.0703 163.221 63.5312 162.492 66.5781 162.492C68.974 162.492 71.0443 163.052 72.7891 164.172C74.5339 165.266 75.7969 166.659 76.5781 168.352L73.3359 169.445C71.7474 166.971 69.4688 165.734 66.5 165.734C64.599 165.734 63.0885 166.164 61.9688 167.023C60.875 167.883 60.3281 169.016 60.3281 170.422C60.3281 171.229 60.5234 171.945 60.9141 172.57C61.3047 173.195 61.9036 173.742 62.7109 174.211C63.5182 174.654 64.2865 175.018 65.0156 175.305C65.7448 175.591 66.7083 175.93 67.9062 176.32C68.2448 176.424 68.4922 176.503 68.6484 176.555C69.8984 176.971 70.9531 177.388 71.8125 177.805C72.6979 178.195 73.5833 178.729 74.4688 179.406C75.3802 180.057 76.0573 180.865 76.5 181.828C76.9688 182.766 77.2031 183.859 77.2031 185.109C77.2031 187.818 76.2396 189.927 74.3125 191.438C72.4115 192.948 69.8854 193.703 66.7344 193.703C64.026 193.703 61.6953 193.117 59.7422 191.945C57.8151 190.747 56.3698 189.146 55.4062 187.141ZM85.5234 182.219C85.5234 184.745 86.0182 186.776 87.0078 188.312C88.0234 189.849 89.4297 190.617 91.2266 190.617C92.9193 190.617 94.3125 189.875 95.4062 188.391C96.526 186.88 97.0859 184.823 97.0859 182.219C97.0859 179.745 96.5521 177.74 95.4844 176.203C94.4427 174.641 93.0234 173.859 91.2266 173.859C89.5078 173.859 88.1276 174.641 87.0859 176.203C86.0443 177.766 85.5234 179.771 85.5234 182.219ZM81.8906 202.18V171.477H85.4062V174.992C86.0052 173.742 86.8516 172.727 87.9453 171.945C89.0651 171.164 90.3281 170.773 91.7344 170.773C94.3646 170.773 96.526 171.815 98.2188 173.898C99.9375 175.956 100.797 178.729 100.797 182.219C100.797 185.969 99.8854 188.82 98.0625 190.773C96.2656 192.727 94.1562 193.703 91.7344 193.703C90.1979 193.703 88.8958 193.326 87.8281 192.57C86.7604 191.789 85.9922 190.839 85.5234 189.719V202.18H81.8906ZM107.75 182.258C107.75 184.888 108.336 186.945 109.508 188.43C110.68 189.888 112.112 190.617 113.805 190.617C115.471 190.617 116.891 189.888 118.062 188.43C119.234 186.945 119.82 184.888 119.82 182.258C119.82 179.576 119.234 177.505 118.062 176.047C116.891 174.589 115.471 173.859 113.805 173.859C112.138 173.859 110.706 174.589 109.508 176.047C108.336 177.479 107.75 179.549 107.75 182.258ZM104 182.258C104 179.003 104.846 176.281 106.539 174.094C108.232 171.88 110.654 170.773 113.805 170.773C116.904 170.773 119.299 171.88 120.992 174.094C122.711 176.281 123.57 179.003 123.57 182.258C123.57 183.612 123.388 184.927 123.023 186.203C122.685 187.479 122.151 188.703 121.422 189.875C120.719 191.021 119.703 191.945 118.375 192.648C117.047 193.352 115.523 193.703 113.805 193.703C112.086 193.703 110.562 193.365 109.234 192.688C107.932 191.984 106.904 191.06 106.148 189.914C105.419 188.768 104.872 187.557 104.508 186.281C104.169 184.979 104 183.638 104 182.258ZM128.102 193V171.477H131.617V174.328C132.034 173.417 132.724 172.596 133.688 171.867C134.651 171.138 135.849 170.773 137.281 170.773C138.375 170.773 139.365 170.956 140.25 171.32V174.641C139.312 174.276 138.323 174.094 137.281 174.094C135.536 174.094 134.182 174.758 133.219 176.086C132.281 177.414 131.812 179.172 131.812 181.359V193H128.102ZM141.539 174.562V171.477H145.172V164.758H148.844V171.477H154.234V174.562H148.844V186.477C148.844 187.701 149.078 188.573 149.547 189.094C150.016 189.615 150.758 189.875 151.773 189.875H154.273V193H151.305C147.216 193 145.172 190.93 145.172 186.789V174.562H141.539ZM158.727 167.219V162.766H163.062V167.219H158.727ZM159.117 193V171.477H162.711V193H159.117ZM171.695 182.258C171.695 184.888 172.281 186.945 173.453 188.43C174.625 189.888 176.057 190.617 177.75 190.617C179.417 190.617 180.836 189.888 182.008 188.43C183.18 186.945 183.766 184.888 183.766 182.258C183.766 179.576 183.18 177.505 182.008 176.047C180.836 174.589 179.417 173.859 177.75 173.859C176.083 173.859 174.651 174.589 173.453 176.047C172.281 177.479 171.695 179.549 171.695 182.258ZM167.945 182.258C167.945 179.003 168.792 176.281 170.484 174.094C172.177 171.88 174.599 170.773 177.75 170.773C180.849 170.773 183.245 171.88 184.938 174.094C186.656 176.281 187.516 179.003 187.516 182.258C187.516 183.612 187.333 184.927 186.969 186.203C186.63 187.479 186.096 188.703 185.367 189.875C184.664 191.021 183.648 191.945 182.32 192.648C180.992 193.352 179.469 193.703 177.75 193.703C176.031 193.703 174.508 193.365 173.18 192.688C171.878 191.984 170.849 191.06 170.094 189.914C169.365 188.768 168.818 187.557 168.453 186.281C168.115 184.979 167.945 183.638 167.945 182.258ZM191.305 178.977C191.305 173.977 192.945 169.901 196.227 166.75C199.508 163.573 203.766 161.984 209 161.984C213.714 161.984 217.555 163.378 220.523 166.164C223.518 168.951 225.016 172.518 225.016 176.867C225.016 180.721 224.208 183.599 222.594 185.5C220.979 187.375 219.13 188.312 217.047 188.312C215.875 188.312 214.846 187.935 213.961 187.18C213.102 186.398 212.62 185.422 212.516 184.25H212.477C212.06 185.266 211.305 186.19 210.211 187.023C209.143 187.857 207.906 188.273 206.5 188.273C204.573 188.273 202.958 187.544 201.656 186.086C200.38 184.628 199.742 182.701 199.742 180.305C199.742 177.102 200.576 174.589 202.242 172.766C203.909 170.917 205.888 169.992 208.18 169.992C210.107 169.992 211.591 170.786 212.633 172.375L212.789 170.344H215.641L215.055 181.906C215.003 183.078 215.185 183.977 215.602 184.602C216.018 185.201 216.578 185.5 217.281 185.5C218.557 185.5 219.625 184.758 220.484 183.273C221.344 181.789 221.773 179.732 221.773 177.102C221.773 173.43 220.615 170.448 218.297 168.156C215.979 165.865 212.867 164.719 208.961 164.719C204.768 164.719 201.318 166.047 198.609 168.703C195.927 171.359 194.586 174.784 194.586 178.977C194.586 183.378 195.875 186.854 198.453 189.406C201.057 191.932 204.417 193.195 208.531 193.195C211.552 193.195 214.456 192.792 217.242 191.984L217.828 194.523C215.068 195.461 211.969 195.93 208.531 195.93C203.323 195.93 199.143 194.367 195.992 191.242C192.867 188.091 191.305 184.003 191.305 178.977ZM203.18 180.266C203.18 181.698 203.518 182.896 204.195 183.859C204.898 184.823 205.81 185.305 206.93 185.305C208.206 185.305 209.378 184.641 210.445 183.312C211.539 181.984 212.086 179.823 212.086 176.828C212.086 175.708 211.773 174.758 211.148 173.977C210.549 173.169 209.625 172.766 208.375 172.766C207.073 172.766 205.875 173.456 204.781 174.836C203.714 176.19 203.18 178 203.18 180.266ZM232.594 181.828C232.594 184.25 233.115 186.19 234.156 187.648C235.198 189.081 236.552 189.797 238.219 189.797C239.885 189.797 241.214 189.094 242.203 187.688C243.219 186.281 243.727 184.315 243.727 181.789C243.727 179.315 243.219 177.375 242.203 175.969C241.188 174.562 239.872 173.859 238.258 173.859C236.539 173.859 235.159 174.602 234.117 176.086C233.102 177.57 232.594 179.484 232.594 181.828ZM228.883 181.867C228.883 178.534 229.716 175.852 231.383 173.82C233.049 171.789 235.185 170.773 237.789 170.773C239.326 170.773 240.589 171.177 241.578 171.984C242.594 172.766 243.31 173.651 243.727 174.641V171.477H247.359V190.305C247.359 194.367 246.604 197.388 245.094 199.367C243.609 201.346 241.266 202.336 238.062 202.336C234.547 202.336 231.826 201.008 229.898 198.352L232.398 196.672C233.987 198.469 235.901 199.367 238.141 199.367C239.859 199.367 241.214 198.703 242.203 197.375C243.193 196.047 243.701 194.289 243.727 192.102C243.727 191.737 243.727 191.229 243.727 190.578C243.753 189.927 243.766 189.471 243.766 189.211C243.245 190.279 242.477 191.164 241.461 191.867C240.445 192.544 239.26 192.883 237.906 192.883C235.198 192.883 233.01 191.867 231.344 189.836C229.703 187.779 228.883 185.122 228.883 181.867ZM253.336 193V171.477H256.93V174.445C257.32 173.56 258.023 172.727 259.039 171.945C260.055 171.164 261.318 170.773 262.828 170.773C265.354 170.773 267.151 172.258 268.219 175.227C268.375 174.862 268.596 174.484 268.883 174.094C269.169 173.677 269.573 173.195 270.094 172.648C270.615 172.102 271.305 171.659 272.164 171.32C273.049 170.956 274 170.773 275.016 170.773C279.26 170.773 281.383 173.547 281.383 179.094V193H277.711V179.328C277.711 177.531 277.464 176.177 276.969 175.266C276.474 174.328 275.549 173.859 274.195 173.859C272.763 173.859 271.565 174.471 270.602 175.695C269.638 176.893 269.156 178.404 269.156 180.227V193H265.562V179.25C265.562 175.656 264.378 173.859 262.008 173.859C260.471 173.859 259.26 174.432 258.375 175.578C257.49 176.724 257.047 178.221 257.047 180.07V193H253.336ZM289.352 187.297C289.352 188.234 289.742 189.029 290.523 189.68C291.305 190.331 292.359 190.656 293.688 190.656C295.458 190.656 296.956 190.083 298.18 188.938C299.43 187.792 300.055 186.32 300.055 184.523V181.867C299.013 182.128 297.32 182.44 294.977 182.805C291.227 183.43 289.352 184.927 289.352 187.297ZM285.68 187.609C285.68 183.573 288.74 181.086 294.859 180.148C297.516 179.732 299.247 179.393 300.055 179.133V177.922C300.055 176.672 299.612 175.656 298.727 174.875C297.867 174.094 296.643 173.703 295.055 173.703C293.805 173.703 292.594 174.003 291.422 174.602C290.276 175.174 289.312 175.943 288.531 176.906L286.227 174.953C287.294 173.677 288.596 172.661 290.133 171.906C291.669 171.151 293.284 170.773 294.977 170.773C300.784 170.773 303.688 173.638 303.688 179.367V193H300.172V189.758C299.729 190.826 298.883 191.75 297.633 192.531C296.383 193.312 294.911 193.703 293.219 193.703C290.849 193.703 289 193.143 287.672 192.023C286.344 190.878 285.68 189.406 285.68 187.609ZM309.703 167.219V162.766H314.039V167.219H309.703ZM310.094 193V171.477H313.688V193H310.094ZM320.758 193V162.141H324.391V193H320.758ZM332.125 193V187.883H337.594V193H332.125ZM343.492 182.258C343.492 178.82 344.378 176.047 346.148 173.938C347.919 171.828 350.276 170.773 353.219 170.773C355.224 170.773 356.917 171.359 358.297 172.531C359.703 173.703 360.628 175.07 361.07 176.633L357.945 177.531C357.581 176.516 356.982 175.656 356.148 174.953C355.315 174.224 354.352 173.859 353.258 173.859C351.409 173.859 349.938 174.654 348.844 176.242C347.776 177.831 347.242 179.836 347.242 182.258C347.242 184.836 347.802 186.88 348.922 188.391C350.068 189.875 351.513 190.617 353.258 190.617C354.456 190.617 355.523 190.227 356.461 189.445C357.424 188.638 358.102 187.714 358.492 186.672L361.617 187.609C361.096 189.25 360.068 190.682 358.531 191.906C357.021 193.104 355.25 193.703 353.219 193.703C350.328 193.703 347.984 192.674 346.188 190.617C344.391 188.534 343.492 185.747 343.492 182.258ZM367.828 182.258C367.828 184.888 368.414 186.945 369.586 188.43C370.758 189.888 372.19 190.617 373.883 190.617C375.549 190.617 376.969 189.888 378.141 188.43C379.312 186.945 379.898 184.888 379.898 182.258C379.898 179.576 379.312 177.505 378.141 176.047C376.969 174.589 375.549 173.859 373.883 173.859C372.216 173.859 370.784 174.589 369.586 176.047C368.414 177.479 367.828 179.549 367.828 182.258ZM364.078 182.258C364.078 179.003 364.924 176.281 366.617 174.094C368.31 171.88 370.732 170.773 373.883 170.773C376.982 170.773 379.378 171.88 381.07 174.094C382.789 176.281 383.648 179.003 383.648 182.258C383.648 183.612 383.466 184.927 383.102 186.203C382.763 187.479 382.229 188.703 381.5 189.875C380.797 191.021 379.781 191.945 378.453 192.648C377.125 193.352 375.602 193.703 373.883 193.703C372.164 193.703 370.641 193.365 369.312 192.688C368.01 191.984 366.982 191.06 366.227 189.914C365.497 188.768 364.951 187.557 364.586 186.281C364.247 184.979 364.078 183.638 364.078 182.258ZM388.18 193V171.477H391.773V174.445C392.164 173.56 392.867 172.727 393.883 171.945C394.898 171.164 396.161 170.773 397.672 170.773C400.198 170.773 401.995 172.258 403.062 175.227C403.219 174.862 403.44 174.484 403.727 174.094C404.013 173.677 404.417 173.195 404.938 172.648C405.458 172.102 406.148 171.659 407.008 171.32C407.893 170.956 408.844 170.773 409.859 170.773C414.104 170.773 416.227 173.547 416.227 179.094V193H412.555V179.328C412.555 177.531 412.307 176.177 411.812 175.266C411.318 174.328 410.393 173.859 409.039 173.859C407.607 173.859 406.409 174.471 405.445 175.695C404.482 176.893 404 178.404 404 180.227V193H400.406V179.25C400.406 175.656 399.221 173.859 396.852 173.859C395.315 173.859 394.104 174.432 393.219 175.578C392.333 176.724 391.891 178.221 391.891 180.07V193H388.18Z" fill="white"/>
<path d="M683.867 195V165.195H695.234C698.203 165.195 700.534 166.003 702.227 167.617C703.945 169.232 704.805 171.38 704.805 174.062C704.805 176.797 703.932 178.958 702.188 180.547C700.443 182.135 698.138 182.93 695.273 182.93H687.656V195H683.867ZM687.656 179.727H694.727C696.68 179.727 698.19 179.258 699.258 178.32C700.352 177.357 700.898 175.938 700.898 174.062C700.898 172.24 700.365 170.846 699.297 169.883C698.229 168.919 696.68 168.438 694.648 168.438H687.656V179.727ZM709.258 195V173.477H712.773V176.328C713.19 175.417 713.88 174.596 714.844 173.867C715.807 173.138 717.005 172.773 718.438 172.773C719.531 172.773 720.521 172.956 721.406 173.32V176.641C720.469 176.276 719.479 176.094 718.438 176.094C716.693 176.094 715.339 176.758 714.375 178.086C713.438 179.414 712.969 181.172 712.969 183.359V195H709.258ZM726.641 184.258C726.641 186.888 727.227 188.945 728.398 190.43C729.57 191.888 731.003 192.617 732.695 192.617C734.362 192.617 735.781 191.888 736.953 190.43C738.125 188.945 738.711 186.888 738.711 184.258C738.711 181.576 738.125 179.505 736.953 178.047C735.781 176.589 734.362 175.859 732.695 175.859C731.029 175.859 729.596 176.589 728.398 178.047C727.227 179.479 726.641 181.549 726.641 184.258ZM722.891 184.258C722.891 181.003 723.737 178.281 725.43 176.094C727.122 173.88 729.544 172.773 732.695 172.773C735.794 172.773 738.19 173.88 739.883 176.094C741.602 178.281 742.461 181.003 742.461 184.258C742.461 185.612 742.279 186.927 741.914 188.203C741.576 189.479 741.042 190.703 740.312 191.875C739.609 193.021 738.594 193.945 737.266 194.648C735.938 195.352 734.414 195.703 732.695 195.703C730.977 195.703 729.453 195.365 728.125 194.688C726.823 193.984 725.794 193.06 725.039 191.914C724.31 190.768 723.763 189.557 723.398 188.281C723.06 186.979 722.891 185.638 722.891 184.258ZM745.625 184.219C745.625 180.677 746.484 177.891 748.203 175.859C749.922 173.802 752.096 172.773 754.727 172.773C756.185 172.773 757.461 173.177 758.555 173.984C759.648 174.792 760.43 175.716 760.898 176.758V164.141H764.531V195H761.016V191.484C760.495 192.682 759.674 193.685 758.555 194.492C757.435 195.299 756.159 195.703 754.727 195.703C753.633 195.703 752.565 195.482 751.523 195.039C750.482 194.622 749.505 193.984 748.594 193.125C747.708 192.24 746.992 191.029 746.445 189.492C745.898 187.956 745.625 186.198 745.625 184.219ZM749.375 184.219C749.375 186.797 749.909 188.841 750.977 190.352C752.044 191.862 753.451 192.617 755.195 192.617C756.81 192.617 758.177 191.862 759.297 190.352C760.417 188.841 760.977 186.797 760.977 184.219C760.977 181.693 760.417 179.674 759.297 178.164C758.203 176.628 756.836 175.859 755.195 175.859C753.424 175.859 752.005 176.628 750.938 178.164C749.896 179.701 749.375 181.719 749.375 184.219ZM770.469 187.344V173.477H774.141V186.719C774.141 190.651 775.56 192.617 778.398 192.617C780.117 192.617 781.445 191.927 782.383 190.547C783.32 189.167 783.789 187.539 783.789 185.664V173.477H787.422V195H783.906V191.875H783.867C783.581 192.734 782.917 193.594 781.875 194.453C780.833 195.286 779.401 195.703 777.578 195.703C775.547 195.703 773.854 195.026 772.5 193.672C771.146 192.292 770.469 190.182 770.469 187.344ZM791.992 184.258C791.992 180.82 792.878 178.047 794.648 175.938C796.419 173.828 798.776 172.773 801.719 172.773C803.724 172.773 805.417 173.359 806.797 174.531C808.203 175.703 809.128 177.07 809.57 178.633L806.445 179.531C806.081 178.516 805.482 177.656 804.648 176.953C803.815 176.224 802.852 175.859 801.758 175.859C799.909 175.859 798.438 176.654 797.344 178.242C796.276 179.831 795.742 181.836 795.742 184.258C795.742 186.836 796.302 188.88 797.422 190.391C798.568 191.875 800.013 192.617 801.758 192.617C802.956 192.617 804.023 192.227 804.961 191.445C805.924 190.638 806.602 189.714 806.992 188.672L810.117 189.609C809.596 191.25 808.568 192.682 807.031 193.906C805.521 195.104 803.75 195.703 801.719 195.703C798.828 195.703 796.484 194.674 794.688 192.617C792.891 190.534 791.992 187.747 791.992 184.258ZM811.719 176.562V173.477H815.352V166.758H819.023V173.477H824.414V176.562H819.023V188.477C819.023 189.701 819.258 190.573 819.727 191.094C820.195 191.615 820.938 191.875 821.953 191.875H824.453V195H821.484C817.396 195 815.352 192.93 815.352 188.789V176.562H811.719ZM826.914 190.664L829.609 189.102C831.146 191.471 833.203 192.656 835.781 192.656C837.24 192.656 838.411 192.383 839.297 191.836C840.182 191.289 840.625 190.521 840.625 189.531C840.625 189.167 840.56 188.828 840.43 188.516C840.326 188.203 840.091 187.917 839.727 187.656C839.388 187.37 839.089 187.148 838.828 186.992C838.594 186.81 838.138 186.602 837.461 186.367C836.81 186.133 836.315 185.964 835.977 185.859C835.664 185.755 835.065 185.56 834.18 185.273C833.242 184.987 832.448 184.701 831.797 184.414C831.172 184.102 830.495 183.711 829.766 183.242C829.062 182.747 828.529 182.135 828.164 181.406C827.799 180.677 827.617 179.844 827.617 178.906C827.617 177.083 828.359 175.612 829.844 174.492C831.354 173.346 833.333 172.773 835.781 172.773C837.552 172.773 839.193 173.242 840.703 174.18C842.214 175.091 843.307 176.211 843.984 177.539L841.523 179.102C840.924 178.19 840.13 177.422 839.141 176.797C838.151 176.146 837.044 175.82 835.82 175.82C834.362 175.82 833.242 176.107 832.461 176.68C831.706 177.227 831.328 177.982 831.328 178.945C831.328 179.518 831.471 180.039 831.758 180.508C832.07 180.951 832.565 181.354 833.242 181.719C833.919 182.057 834.492 182.318 834.961 182.5C835.456 182.682 836.172 182.917 837.109 183.203C838.073 183.49 838.906 183.789 839.609 184.102C840.339 184.414 841.094 184.818 841.875 185.312C842.656 185.807 843.255 186.419 843.672 187.148C844.115 187.878 844.336 188.685 844.336 189.57C844.336 191.289 843.581 192.747 842.07 193.945C840.56 195.117 838.477 195.703 835.82 195.703C833.841 195.703 832.083 195.26 830.547 194.375C829.01 193.49 827.799 192.253 826.914 190.664Z" fill="white"/>
<g clip-path="url(#clip0_246_15)">
<path d="M46.3084 191.738C46.3323 191.664 46.3485 191.587 46.3485 191.505V164.505C46.3485 164.423 46.3323 164.344 46.3079 164.27C46.3043 164.26 46.3023 164.25 46.2982 164.24C46.2657 164.153 46.2179 164.075 46.158 164.006C46.1539 164.001 46.1534 163.996 46.1493 163.991C46.1468 163.989 46.1437 163.988 46.1412 163.985C46.0772 163.917 46.0014 163.862 45.9166 163.821C45.91 163.818 45.9049 163.814 45.8983 163.811C45.818 163.775 45.7306 163.754 45.6386 163.748C45.6294 163.748 45.6208 163.746 45.6116 163.746C45.603 163.745 45.5954 163.743 45.5867 163.743H3.30187C3.29323 163.743 3.2851 163.745 3.27646 163.746C3.26833 163.746 3.2602 163.748 3.25207 163.748C3.15907 163.754 3.07013 163.775 2.98882 163.812C2.98374 163.814 2.97967 163.817 2.97459 163.819C2.8882 163.861 2.81146 163.916 2.74692 163.986C2.74438 163.988 2.74133 163.989 2.73879 163.991C2.73472 163.995 2.73421 164.001 2.73015 164.005C2.67018 164.074 2.6219 164.153 2.58937 164.24C2.58531 164.25 2.58328 164.26 2.57972 164.271C2.55532 164.345 2.53906 164.423 2.53906 164.505V191.506C2.53906 191.589 2.55583 191.668 2.58073 191.744C2.58429 191.754 2.58633 191.763 2.58988 191.774C2.62292 191.861 2.6717 191.94 2.73218 192.008C2.73574 192.012 2.73675 192.017 2.74031 192.022C2.74336 192.025 2.74742 192.027 2.75098 192.031C2.77588 192.057 2.80333 192.079 2.83179 192.102C2.84449 192.112 2.85567 192.123 2.86888 192.132C2.90243 192.156 2.93851 192.175 2.97561 192.192C2.98475 192.196 2.99289 192.202 3.00203 192.206C3.09402 192.245 3.19515 192.268 3.30136 192.268H45.5857C45.6919 192.268 45.7931 192.246 45.8851 192.206C45.8993 192.2 45.9125 192.191 45.9262 192.184C45.9577 192.168 45.9892 192.152 46.0182 192.132C46.0334 192.121 46.0472 192.107 46.0619 192.096C46.0878 192.075 46.1132 192.054 46.1356 192.03C46.1397 192.026 46.1442 192.023 46.1483 192.019C46.1524 192.014 46.1534 192.008 46.1574 192.004C46.2169 191.936 46.2647 191.857 46.2972 191.771C46.3023 191.76 46.3048 191.749 46.3084 191.738ZM4.06417 166.234L16.8947 177.954L4.06417 189.767V166.234ZM30.3615 177.379C30.3087 177.414 30.2528 177.443 30.2086 177.492C30.1918 177.51 30.1862 177.534 30.1715 177.553L24.4441 182.785L5.26658 165.267H43.6215L30.3615 177.379ZM18.025 178.986L23.9298 184.38C24.0756 184.513 24.2596 184.579 24.4441 184.579C24.6285 184.579 24.8125 184.513 24.9578 184.38L30.7894 179.053L43.618 190.743H5.2554L18.025 178.986ZM31.9202 178.02L44.8239 166.234V189.779L31.9202 178.02Z" fill="white"/>
</g>
<defs>
<clipPath id="clip0_246_15">
<rect width="51" height="51" fill="white" transform="translate(3 153)"/>
</clipPath>
</defs>
</svg>
