<svg width="323" height="208" viewBox="0 0 323 208" fill="none" xmlns="http://www.w3.org/2000/svg">
<path d="M3.1 46H12.6V26L21.5 39.6H21.7L30.65 25.9V46H40.3V11H30.05L21.7 24.55L13.35 11H3.1V46ZM46.5082 46H74.9082V37.75H56.1082V32.2H72.9082V24.55H56.1082V19.25H74.6582V11H46.5082V46ZM79.8578 46H89.4578V26.8L104.408 46H112.908V11H103.308V29.5L88.9078 11H79.8578V46ZM134.866 46.65C144.816 46.65 151.266 41.7 151.266 30.4V11H141.416V30.7C141.416 35.6 138.866 37.9 134.966 37.9C131.066 37.9 128.516 35.5 128.516 30.45V11H118.666V30.65C118.666 41.6 124.916 46.65 134.866 46.65ZM170.873 46H197.523V37.5H180.573V11H170.873V46ZM201.884 46H211.634V11H201.884V46ZM218.041 46H227.641V26.8L242.591 46H251.091V11H241.491V29.5L227.091 11H218.041V46ZM257.299 46H266.999V36.95L270.549 33L279.349 46H290.999L277.299 26.05L290.549 11H279.049L266.999 25.2V11H257.299V46ZM307.084 46.6C315.584 46.6 321.234 42.35 321.234 35.2V35.1C321.234 28.55 316.234 25.95 308.184 24.2C303.334 23.1 302.134 22.4 302.134 20.8V20.7C302.134 19.45 303.284 18.45 305.634 18.45C308.734 18.45 312.234 19.65 315.434 21.9L320.284 15.05C316.484 12 311.834 10.4 305.884 10.4C297.484 10.4 292.334 15.1 292.334 21.6V21.7C292.334 28.9 298.084 31 305.534 32.7C310.284 33.8 311.434 34.6 311.434 36.05V36.15C311.434 37.65 310.034 38.55 307.434 38.55C303.384 38.55 299.534 37.1 296.084 34.35L290.684 40.8C294.984 44.65 300.884 46.6 307.084 46.6Z" fill="#F7F7F7"/>
<path d="M3.86719 122V92.1953H7.65625V105.086H21.4062V92.1953H25.1953V122H21.4062V108.25H7.65625V122H3.86719ZM34.375 111.258C34.375 113.888 34.9609 115.945 36.1328 117.43C37.3047 118.888 38.737 119.617 40.4297 119.617C42.0964 119.617 43.5156 118.888 44.6875 117.43C45.8594 115.945 46.4453 113.888 46.4453 111.258C46.4453 108.576 45.8594 106.505 44.6875 105.047C43.5156 103.589 42.0964 102.859 40.4297 102.859C38.763 102.859 37.3307 103.589 36.1328 105.047C34.9609 106.479 34.375 108.549 34.375 111.258ZM30.625 111.258C30.625 108.003 31.4714 105.281 33.1641 103.094C34.8568 100.88 37.2786 99.7734 40.4297 99.7734C43.5286 99.7734 45.9245 100.88 47.6172 103.094C49.3359 105.281 50.1953 108.003 50.1953 111.258C50.1953 112.612 50.013 113.927 49.6484 115.203C49.3099 116.479 48.776 117.703 48.0469 118.875C47.3438 120.021 46.3281 120.945 45 121.648C43.6719 122.352 42.1484 122.703 40.4297 122.703C38.7109 122.703 37.1875 122.365 35.8594 121.688C34.5573 120.984 33.5286 120.06 32.7734 118.914C32.0443 117.768 31.4974 116.557 31.1328 115.281C30.7943 113.979 30.625 112.638 30.625 111.258ZM54.7266 122V100.477H58.3203V103.445C58.7109 102.56 59.4141 101.727 60.4297 100.945C61.4453 100.164 62.7083 99.7734 64.2188 99.7734C66.7448 99.7734 68.5417 101.258 69.6094 104.227C69.7656 103.862 69.987 103.484 70.2734 103.094C70.5599 102.677 70.9635 102.195 71.4844 101.648C72.0052 101.102 72.6953 100.659 73.5547 100.32C74.4401 99.9557 75.3906 99.7734 76.4062 99.7734C80.651 99.7734 82.7734 102.547 82.7734 108.094V122H79.1016V108.328C79.1016 106.531 78.8542 105.177 78.3594 104.266C77.8646 103.328 76.9401 102.859 75.5859 102.859C74.1536 102.859 72.9557 103.471 71.9922 104.695C71.0286 105.893 70.5469 107.404 70.5469 109.227V122H66.9531V108.25C66.9531 104.656 65.7682 102.859 63.3984 102.859C61.862 102.859 60.651 103.432 59.7656 104.578C58.8802 105.724 58.4375 107.221 58.4375 109.07V122H54.7266ZM87.1094 111.102C87.1094 107.716 88.0339 104.982 89.8828 102.898C91.7318 100.815 94.1016 99.7734 96.9922 99.7734C99.8828 99.7734 102.188 100.802 103.906 102.859C105.651 104.917 106.523 107.547 106.523 110.75C106.523 111.167 106.497 111.74 106.445 112.469H90.8203C90.8203 114.448 91.3802 116.154 92.5 117.586C93.6458 118.992 95.2083 119.695 97.1875 119.695C99.8438 119.695 101.784 118.549 103.008 116.258L106.094 117.234C105.417 118.823 104.31 120.138 102.773 121.18C101.263 122.195 99.388 122.703 97.1484 122.703C94.1536 122.703 91.7318 121.648 89.8828 119.539C88.0339 117.404 87.1094 114.591 87.1094 111.102ZM90.8984 109.773H102.812C102.812 107.82 102.292 106.167 101.25 104.812C100.208 103.458 98.7891 102.781 96.9922 102.781C95.1693 102.781 93.7109 103.484 92.6172 104.891C91.5234 106.271 90.9505 107.898 90.8984 109.773Z" fill="white"/>
<path d="M3.86719 195V165.195H15.2344C18.2031 165.195 20.5339 166.003 22.2266 167.617C23.9453 169.232 24.8047 171.38 24.8047 174.062C24.8047 176.797 23.9323 178.958 22.1875 180.547C20.4427 182.135 18.138 182.93 15.2734 182.93H7.65625V195H3.86719ZM7.65625 179.727H14.7266C16.6797 179.727 18.1901 179.258 19.2578 178.32C20.3516 177.357 20.8984 175.938 20.8984 174.062C20.8984 172.24 20.3646 170.846 19.2969 169.883C18.2292 168.919 16.6797 168.438 14.6484 168.438H7.65625V179.727ZM29.2578 195V173.477H32.7734V176.328C33.1901 175.417 33.8802 174.596 34.8438 173.867C35.8073 173.138 37.0052 172.773 38.4375 172.773C39.5312 172.773 40.5208 172.956 41.4062 173.32V176.641C40.4688 176.276 39.4792 176.094 38.4375 176.094C36.6927 176.094 35.3385 176.758 34.375 178.086C33.4375 179.414 32.9688 181.172 32.9688 183.359V195H29.2578ZM46.6406 184.258C46.6406 186.888 47.2266 188.945 48.3984 190.43C49.5703 191.888 51.0026 192.617 52.6953 192.617C54.362 192.617 55.7812 191.888 56.9531 190.43C58.125 188.945 58.7109 186.888 58.7109 184.258C58.7109 181.576 58.125 179.505 56.9531 178.047C55.7812 176.589 54.362 175.859 52.6953 175.859C51.0286 175.859 49.5964 176.589 48.3984 178.047C47.2266 179.479 46.6406 181.549 46.6406 184.258ZM42.8906 184.258C42.8906 181.003 43.737 178.281 45.4297 176.094C47.1224 173.88 49.5443 172.773 52.6953 172.773C55.7943 172.773 58.1901 173.88 59.8828 176.094C61.6016 178.281 62.4609 181.003 62.4609 184.258C62.4609 185.612 62.2786 186.927 61.9141 188.203C61.5755 189.479 61.0417 190.703 60.3125 191.875C59.6094 193.021 58.5938 193.945 57.2656 194.648C55.9375 195.352 54.4141 195.703 52.6953 195.703C50.9766 195.703 49.4531 195.365 48.125 194.688C46.8229 193.984 45.7943 193.06 45.0391 191.914C44.3099 190.768 43.763 189.557 43.3984 188.281C43.0599 186.979 42.8906 185.638 42.8906 184.258ZM65.625 184.219C65.625 180.677 66.4844 177.891 68.2031 175.859C69.9219 173.802 72.0964 172.773 74.7266 172.773C76.1849 172.773 77.4609 173.177 78.5547 173.984C79.6484 174.792 80.4297 175.716 80.8984 176.758V164.141H84.5312V195H81.0156V191.484C80.4948 192.682 79.6745 193.685 78.5547 194.492C77.4349 195.299 76.1589 195.703 74.7266 195.703C73.6328 195.703 72.5651 195.482 71.5234 195.039C70.4818 194.622 69.5052 193.984 68.5938 193.125C67.7083 192.24 66.9922 191.029 66.4453 189.492C65.8984 187.956 65.625 186.198 65.625 184.219ZM69.375 184.219C69.375 186.797 69.9089 188.841 70.9766 190.352C72.0443 191.862 73.4505 192.617 75.1953 192.617C76.8099 192.617 78.1771 191.862 79.2969 190.352C80.4167 188.841 80.9766 186.797 80.9766 184.219C80.9766 181.693 80.4167 179.674 79.2969 178.164C78.2031 176.628 76.8359 175.859 75.1953 175.859C73.4245 175.859 72.0052 176.628 70.9375 178.164C69.8958 179.701 69.375 181.719 69.375 184.219ZM90.4688 187.344V173.477H94.1406V186.719C94.1406 190.651 95.5599 192.617 98.3984 192.617C100.117 192.617 101.445 191.927 102.383 190.547C103.32 189.167 103.789 187.539 103.789 185.664V173.477H107.422V195H103.906V191.875H103.867C103.581 192.734 102.917 193.594 101.875 194.453C100.833 195.286 99.401 195.703 97.5781 195.703C95.5469 195.703 93.8542 195.026 92.5 193.672C91.1458 192.292 90.4688 190.182 90.4688 187.344ZM111.992 184.258C111.992 180.82 112.878 178.047 114.648 175.938C116.419 173.828 118.776 172.773 121.719 172.773C123.724 172.773 125.417 173.359 126.797 174.531C128.203 175.703 129.128 177.07 129.57 178.633L126.445 179.531C126.081 178.516 125.482 177.656 124.648 176.953C123.815 176.224 122.852 175.859 121.758 175.859C119.909 175.859 118.438 176.654 117.344 178.242C116.276 179.831 115.742 181.836 115.742 184.258C115.742 186.836 116.302 188.88 117.422 190.391C118.568 191.875 120.013 192.617 121.758 192.617C122.956 192.617 124.023 192.227 124.961 191.445C125.924 190.638 126.602 189.714 126.992 188.672L130.117 189.609C129.596 191.25 128.568 192.682 127.031 193.906C125.521 195.104 123.75 195.703 121.719 195.703C118.828 195.703 116.484 194.674 114.688 192.617C112.891 190.534 111.992 187.747 111.992 184.258ZM131.719 176.562V173.477H135.352V166.758H139.023V173.477H144.414V176.562H139.023V188.477C139.023 189.701 139.258 190.573 139.727 191.094C140.195 191.615 140.938 191.875 141.953 191.875H144.453V195H141.484C137.396 195 135.352 192.93 135.352 188.789V176.562H131.719ZM146.914 190.664L149.609 189.102C151.146 191.471 153.203 192.656 155.781 192.656C157.24 192.656 158.411 192.383 159.297 191.836C160.182 191.289 160.625 190.521 160.625 189.531C160.625 189.167 160.56 188.828 160.43 188.516C160.326 188.203 160.091 187.917 159.727 187.656C159.388 187.37 159.089 187.148 158.828 186.992C158.594 186.81 158.138 186.602 157.461 186.367C156.81 186.133 156.315 185.964 155.977 185.859C155.664 185.755 155.065 185.56 154.18 185.273C153.242 184.987 152.448 184.701 151.797 184.414C151.172 184.102 150.495 183.711 149.766 183.242C149.062 182.747 148.529 182.135 148.164 181.406C147.799 180.677 147.617 179.844 147.617 178.906C147.617 177.083 148.359 175.612 149.844 174.492C151.354 173.346 153.333 172.773 155.781 172.773C157.552 172.773 159.193 173.242 160.703 174.18C162.214 175.091 163.307 176.211 163.984 177.539L161.523 179.102C160.924 178.19 160.13 177.422 159.141 176.797C158.151 176.146 157.044 175.82 155.82 175.82C154.362 175.82 153.242 176.107 152.461 176.68C151.706 177.227 151.328 177.982 151.328 178.945C151.328 179.518 151.471 180.039 151.758 180.508C152.07 180.951 152.565 181.354 153.242 181.719C153.919 182.057 154.492 182.318 154.961 182.5C155.456 182.682 156.172 182.917 157.109 183.203C158.073 183.49 158.906 183.789 159.609 184.102C160.339 184.414 161.094 184.818 161.875 185.312C162.656 185.807 163.255 186.419 163.672 187.148C164.115 187.878 164.336 188.685 164.336 189.57C164.336 191.289 163.581 192.747 162.07 193.945C160.56 195.117 158.477 195.703 155.82 195.703C153.841 195.703 152.083 195.26 150.547 194.375C149.01 193.49 147.799 192.253 146.914 190.664Z" fill="white"/>
</svg>
